<svg width="20" height="23" viewBox="0 0 20 23" fill="none" xmlns="http://www.w3.org/2000/svg">
<mask id="path-1-inside-1" fill="white">
<path fill-rule="evenodd" clip-rule="evenodd" d="M8 0.839996H2V22.84H8V0.839996ZM17.08 0.839996H11.08V22.84H17.08V0.839996Z"/>
</mask>
<path fill-rule="evenodd" clip-rule="evenodd" d="M8 0.839996H2V22.84H8V0.839996ZM17.08 0.839996H11.08V22.84H17.08V0.839996Z" fill="url(#paint0_linear)"/>
<path d="M2 0.839996V-0.160004H1V0.839996H2ZM8 0.839996H9V-0.160004H8V0.839996ZM2 22.84H1V23.84H2V22.84ZM8 22.84V23.84H9V22.84H8ZM11.08 0.839996V-0.160004H10.08V0.839996H11.08ZM17.08 0.839996H18.08V-0.160004H17.08V0.839996ZM11.08 22.84H10.08V23.84H11.08V22.84ZM17.08 22.84V23.84H18.08V22.84H17.08ZM2 1.84H8V-0.160004H2V1.84ZM3 22.84V0.839996H1V22.84H3ZM8 21.84H2V23.84H8V21.84ZM7 0.839996V22.84H9V0.839996H7ZM11.08 1.84H17.08V-0.160004H11.08V1.84ZM12.08 22.84V0.839996H10.08V22.84H12.08ZM17.08 21.84H11.08V23.84H17.08V21.84ZM16.08 0.839996V22.84H18.08V0.839996H16.08Z" fill="#192948" mask="url(#path-1-inside-1)"/>
<defs>
<linearGradient id="paint0_linear" x1="2" y1="11.84" x2="17.08" y2="11.84" gradientUnits="userSpaceOnUse">
<stop offset="0.0001" stop-color="#4200FF"/>
<stop offset="1" stop-color="#1C8EF7"/>
</linearGradient>
</defs>
</svg>
